<?xml version="1.0" encoding="UTF-8" standalone="no"?><svg xmlns="http://www.w3.org/2000/svg" xmlns:xlink="http://www.w3.org/1999/xlink" contentScriptType="application/ecmascript" contentStyleType="text/css" height="416px" preserveAspectRatio="none" style="width:600px;height:416px;" version="1.1" viewBox="0 0 600 416" width="600px" zoomAndPan="magnify"><defs><filter height="300%" id="fpacd2lmiaqgi" width="300%" x="-1" y="-1"><feGaussianBlur result="blurOut" stdDeviation="2.0"/><feColorMatrix in="blurOut" result="blurOut2" type="matrix" values="0 0 0 0 0 0 0 0 0 0 0 0 0 0 0 0 0 0 .4 0"/><feOffset dx="4.0" dy="4.0" in="blurOut2" result="blurOut3"/><feBlend in="SourceGraphic" in2="blurOut3" mode="normal"/></filter></defs><g><rect fill="#FEFECE" filter="url(#fpacd2lmiaqgi)" height="36.2969" rx="12.5" ry="12.5" style="stroke:#A80036;stroke-width:1.5;" width="63" x="10" y="188.8906"/><text fill="#000000" font-family="sans-serif" font-size="14" lengthAdjust="spacing" textLength="43" x="20" y="211.8857">Jerker</text><rect fill="#FEFECE" filter="url(#fpacd2lmiaqgi)" height="36.2969" rx="12.5" ry="12.5" style="stroke:#A80036;stroke-width:1.5;" width="71" x="123" y="104.4453"/><text fill="#000000" font-family="sans-serif" font-size="14" lengthAdjust="spacing" textLength="51" x="133" y="127.4404">Ubuntu</text><rect fill="#FEFECE" filter="url(#fpacd2lmiaqgi)" height="36.2969" rx="12.5" ry="12.5" style="stroke:#A80036;stroke-width:1.5;" width="93" x="244" y="20"/><text fill="#000000" font-family="sans-serif" font-size="14" lengthAdjust="spacing" textLength="73" x="254" y="42.9951">Linux Mint</text><path d="M194,122.5938 L204,122.5938 C219,122.5938 219,38.1484 234,38.1484 L244,38.1484 " fill="none" style="stroke:#A80036;stroke-width:1.0;"/><rect fill="#FEFECE" filter="url(#fpacd2lmiaqgi)" height="36.2969" rx="12.5" ry="12.5" style="stroke:#A80036;stroke-width:1.5;" width="80" x="244" y="76.2969"/><text fill="#000000" font-family="sans-serif" font-size="14" lengthAdjust="spacing" textLength="60" x="254" y="99.292">Kubuntu</text><path d="M194,122.5938 L204,122.5938 C219,122.5938 219,94.4453 234,94.4453 L244,94.4453 " fill="none" style="stroke:#A80036;stroke-width:1.0;"/><rect fill="#FEFECE" filter="url(#fpacd2lmiaqgi)" height="36.2969" rx="12.5" ry="12.5" style="stroke:#A80036;stroke-width:1.5;" width="78" x="244" y="132.5938"/><text fill="#000000" font-family="sans-serif" font-size="14" lengthAdjust="spacing" textLength="58" x="254" y="155.5889">Lubuntu</text><path d="M194,122.5938 L204,122.5938 C219,122.5938 219,150.7422 234,150.7422 L244,150.7422 " fill="none" style="stroke:#A80036;stroke-width:1.0;"/><rect fill="#FEFECE" filter="url(#fpacd2lmiaqgi)" height="36.2969" rx="12.5" ry="12.5" style="stroke:#A80036;stroke-width:1.5;" width="91" x="244" y="188.8906"/><text fill="#000000" font-family="sans-serif" font-size="14" lengthAdjust="spacing" textLength="71" x="254" y="211.8857">KDE Neon</text><path d="M194,122.5938 L204,122.5938 C219,122.5938 219,207.0391 234,207.0391 L244,207.0391 " fill="none" style="stroke:#A80036;stroke-width:1.0;"/><path d="M73,207.0391 L83,207.0391 C98,207.0391 98,122.5938 113,122.5938 L123,122.5938 " fill="none" style="stroke:#A80036;stroke-width:1.0;"/><rect fill="#FEFECE" filter="url(#fpacd2lmiaqgi)" height="36.2969" rx="12.5" ry="12.5" style="stroke:#A80036;stroke-width:1.5;" width="60" x="123" y="160.7422"/><text fill="#000000" font-family="sans-serif" font-size="14" lengthAdjust="spacing" textLength="40" x="133" y="183.7373">LMDE</text><path d="M73,207.0391 L83,207.0391 C98,207.0391 98,178.8906 113,178.8906 L123,178.8906 " fill="none" style="stroke:#A80036;stroke-width:1.0;"/><rect fill="#FEFECE" filter="url(#fpacd2lmiaqgi)" height="36.2969" rx="12.5" ry="12.5" style="stroke:#A80036;stroke-width:1.5;" width="79" x="123" y="217.0391"/><text fill="#000000" font-family="sans-serif" font-size="14" lengthAdjust="spacing" textLength="59" x="133" y="240.0342">SolydXK</text><path d="M73,207.0391 L83,207.0391 C98,207.0391 98,235.1875 113,235.1875 L123,235.1875 " fill="none" style="stroke:#A80036;stroke-width:1.0;"/><rect fill="#FEFECE" filter="url(#fpacd2lmiaqgi)" height="36.2969" rx="12.5" ry="12.5" style="stroke:#A80036;stroke-width:1.5;" width="87" x="123" y="273.3359"/><text fill="#000000" font-family="sans-serif" font-size="14" lengthAdjust="spacing" textLength="67" x="133" y="296.3311">SteamOS</text><path d="M73,207.0391 L83,207.0391 C98,207.0391 98,291.4844 113,291.4844 L123,291.4844 " fill="none" style="stroke:#A80036;stroke-width:1.0;"/><rect fill="#FEFECE" filter="url(#fpacd2lmiaqgi)" height="36.2969" rx="12.5" ry="12.5" style="stroke:#A80036;stroke-width:1.5;" width="247" x="123" y="329.6328"/><text fill="#000000" font-family="sans-serif" font-size="14" lengthAdjust="spacing" textLength="227" x="133" y="352.6279">Raspbian with a very long name</text><rect fill="#FEFECE" filter="url(#fpacd2lmiaqgi)" height="36.2969" rx="12.5" ry="12.5" style="stroke:#A80036;stroke-width:1.5;" width="159" x="420" y="301.4844"/><text fill="#000000" font-family="sans-serif" font-size="14" lengthAdjust="spacing" text-decoration="line-through" textLength="67" x="430" y="324.4795">Raspmbc</text><text fill="#000000" font-family="sans-serif" font-size="14" lengthAdjust="spacing" textLength="68" x="501" y="324.4795">=&gt; OSMC</text><path d="M370,347.7813 L380,347.7813 C395,347.7813 395,319.6328 410,319.6328 L420,319.6328 " fill="none" style="stroke:#A80036;stroke-width:1.0;"/><rect fill="#FEFECE" filter="url(#fpacd2lmiaqgi)" height="36.2969" rx="12.5" ry="12.5" style="stroke:#A80036;stroke-width:1.5;" width="161" x="420" y="357.7813"/><text fill="#000000" font-family="sans-serif" font-size="14" lengthAdjust="spacing" text-decoration="line-through" textLength="53" x="430" y="380.7764">Raspyfi</text><text fill="#000000" font-family="sans-serif" font-size="14" lengthAdjust="spacing" textLength="84" x="487" y="380.7764">=&gt; Volumio</text><path d="M370,347.7813 L380,347.7813 C395,347.7813 395,375.9297 410,375.9297 L420,375.9297 " fill="none" style="stroke:#A80036;stroke-width:1.0;"/><path d="M73,207.0391 L83,207.0391 C98,207.0391 98,347.7813 113,347.7813 L123,347.7813 " fill="none" style="stroke:#A80036;stroke-width:1.0;"/><!--MD5=[acf53ba9426cf8ba3f5ea2dd64f32ed8]
@startmindmap
* Jerker
** Ubuntu
*** Linux Mint
*** Kubuntu
*** Lubuntu
*** KDE Neon
** LMDE
** SolydXK
** SteamOS
** Raspbian with a very long name
*** <s>Raspmbc</s> => OSMC
*** <s>Raspyfi</s> => Volumio
@endmindmap

PlantUML version 1.2021.5beta3(Unknown compile time)
(GPL source distribution)
Java Runtime: Java(TM) SE Runtime Environment
JVM: Java HotSpot(TM) 64-Bit Server VM
Default Encoding: UTF-8
Language: en
Country: US
--></g></svg>